<svg width="40" height="40" viewBox="0 0 40 40" fill="none" xmlns="http://www.w3.org/2000/svg">
<g filter="url(#filter0_d_7898_100155)">
<path d="M2 19C2 13.4087 2 10.6131 2.91345 8.4078C4.13137 5.46746 6.46746 3.13137 9.4078 1.91345C11.6131 1 14.4087 1 20 1V1C25.5913 1 28.3869 1 30.5922 1.91345C33.5325 3.13137 35.8686 5.46746 37.0866 8.4078C38 10.6131 38 13.4087 38 19V19C38 24.5913 38 27.3869 37.0866 29.5922C35.8686 32.5325 33.5325 34.8686 30.5922 36.0866C28.3869 37 25.5913 37 20 37V37C14.4087 37 11.6131 37 9.4078 36.0866C6.46746 34.8686 4.13137 32.5325 2.91345 29.5922C2 27.3869 2 24.5913 2 19V19Z" fill="#590DF2"/>
</g>
<g filter="url(#filter1_d_7898_100155)">
<path fill-rule="evenodd" clip-rule="evenodd" d="M13.5362 35.3893C15.1468 35.4992 17.1838 35.5 20 35.5C22.8162 35.5 24.8532 35.4992 26.4638 35.3893C28.0609 35.2803 29.1288 35.0691 30.0182 34.7007C32.591 33.635 34.635 31.591 35.7007 29.0182C36.0691 28.1288 36.2803 27.0609 36.3893 25.4638C36.4992 23.8532 36.5 21.8162 36.5 19C36.5 16.1838 36.4992 14.1468 36.3893 12.5362C36.2803 10.9391 36.0691 9.87121 35.7007 8.98182C34.635 6.40903 32.591 4.36495 30.0182 3.29926C29.1288 2.93087 28.0609 2.71967 26.4638 2.6107C24.8532 2.50081 22.8162 2.5 20 2.5C17.1838 2.5 15.1468 2.50081 13.5362 2.6107C11.9391 2.71967 10.8712 2.93087 9.98182 3.29926C7.40903 4.36495 5.36495 6.40903 4.29926 8.98182C3.93087 9.87121 3.71967 10.9391 3.6107 12.5362C3.50081 14.1468 3.5 16.1838 3.5 19C3.5 21.8162 3.50081 23.8532 3.6107 25.4638C3.71967 27.0609 3.93087 28.1288 4.29926 29.0182C5.36495 31.591 7.40903 33.635 9.98182 34.7007C10.8712 35.0691 11.9391 35.2803 13.5362 35.3893ZM2.91345 8.4078C2 10.6131 2 13.4087 2 19C2 24.5913 2 27.3869 2.91345 29.5922C4.13137 32.5325 6.46746 34.8686 9.4078 36.0866C11.6131 37 14.4087 37 20 37C25.5913 37 28.3869 37 30.5922 36.0866C33.5325 34.8686 35.8686 32.5325 37.0866 29.5922C38 27.3869 38 24.5913 38 19C38 13.4087 38 10.6131 37.0866 8.4078C35.8686 5.46746 33.5325 3.13137 30.5922 1.91345C28.3869 1 25.5913 1 20 1C14.4087 1 11.6131 1 9.4078 1.91345C6.46746 3.13137 4.13137 5.46746 2.91345 8.4078Z" fill="white" fill-opacity="0.2"/>
</g>
<g filter="url(#filter2_d_7898_100155)">
<path d="M17.0617 8.38881C17.1625 7.98706 16.9186 7.57963 16.5168 7.47879C16.1151 7.37796 15.7077 7.6219 15.6068 8.02366C15.4715 8.56287 15.3687 9.25334 15.3351 10.043C15.2277 12.5676 15.6188 15.5837 18.5075 19.0198C18.6466 19.1853 18.842 19.2756 19.0421 19.2862C19.0188 19.4855 19.0751 19.6936 19.2152 19.8587C20.3457 21.1905 21.0515 22.4342 21.4819 23.5968L15.2793 21.003C14.8972 20.8432 14.4578 21.0234 14.298 21.4055C14.1382 21.7877 14.3184 22.227 14.7006 22.3868L21.8765 25.3877C21.9051 25.3997 21.934 25.4097 21.9631 25.4179C22.1004 26.2599 22.1189 27.0546 22.0898 27.8056C22.0627 28.506 21.9738 29.0922 21.8678 29.5179C21.7676 29.9198 22.0123 30.3268 22.4142 30.4269C22.8161 30.5271 23.2231 30.2824 23.3233 29.8805C23.4575 29.3419 23.5582 28.6523 23.5887 27.8636C23.6863 25.3412 23.2793 22.3288 20.3588 18.888C20.2197 18.7242 20.0254 18.6349 19.8266 18.6244C19.8497 18.4262 19.7942 18.2193 19.6557 18.0546C17.3273 15.2848 16.8289 12.8901 16.8196 10.8105L26.7679 14.9708C27.15 15.1306 27.5894 14.9503 27.7492 14.5682C27.909 14.1861 27.7288 13.7467 27.3466 13.5869L16.9084 9.22177C16.9498 8.90158 17.0033 8.62143 17.0617 8.38881Z" fill="white" fill-opacity="0.5" shape-rendering="crispEdges"/>
</g>
<g filter="url(#filter3_d_7898_100155)">
<path fill-rule="evenodd" clip-rule="evenodd" d="M30.0282 13.9383C30.1736 13.5505 29.9771 13.1182 29.5892 12.9727C29.2014 12.8273 28.7691 13.0239 28.6236 13.4117C28.3968 14.0167 27.5428 15.2842 25.6983 16.3753C25.6838 16.3681 25.669 16.3614 25.6538 16.355L18.4779 13.3542C18.0958 13.1944 17.6564 13.3746 17.4966 13.7567C17.3368 14.1389 17.5171 14.5782 17.8992 14.738L23.8843 17.2409C22.7909 17.6558 21.4768 17.9872 19.9093 18.1591C13.2204 18.8925 10.0527 21.8401 9.20023 23.8784C9.04042 24.2606 9.22066 24.6999 9.60281 24.8597C9.98495 25.0195 10.4243 24.8393 10.5841 24.4571C10.6188 24.3742 10.6608 24.2863 10.7104 24.194L21.0947 28.5366C21.4769 28.6964 21.9162 28.5162 22.076 28.134C22.2358 27.7519 22.0556 27.3126 21.6734 27.1527L11.6647 22.9672C13.0092 21.6426 15.6034 20.1402 20.0728 19.6502C26.5732 18.9374 29.401 15.6111 30.0282 13.9383Z" fill="white"/>
</g>
<defs>
<filter id="filter0_d_7898_100155" x="0" y="0" width="40" height="40" filterUnits="userSpaceOnUse" color-interpolation-filters="sRGB">
<feFlood flood-opacity="0" result="BackgroundImageFix"/>
<feColorMatrix in="SourceAlpha" type="matrix" values="0 0 0 0 0 0 0 0 0 0 0 0 0 0 0 0 0 0 127 0" result="hardAlpha"/>
<feOffset dy="1"/>
<feGaussianBlur stdDeviation="1"/>
<feComposite in2="hardAlpha" operator="out"/>
<feColorMatrix type="matrix" values="0 0 0 0 0 0 0 0 0 0 0 0 0 0 0 0 0 0 0.05 0"/>
<feBlend mode="normal" in2="BackgroundImageFix" result="effect1_dropShadow_7898_100155"/>
<feBlend mode="normal" in="SourceGraphic" in2="effect1_dropShadow_7898_100155" result="shape"/>
</filter>
<filter id="filter1_d_7898_100155" x="0" y="0" width="40" height="40" filterUnits="userSpaceOnUse" color-interpolation-filters="sRGB">
<feFlood flood-opacity="0" result="BackgroundImageFix"/>
<feColorMatrix in="SourceAlpha" type="matrix" values="0 0 0 0 0 0 0 0 0 0 0 0 0 0 0 0 0 0 127 0" result="hardAlpha"/>
<feOffset dy="1"/>
<feGaussianBlur stdDeviation="1"/>
<feColorMatrix type="matrix" values="0 0 0 0 0 0 0 0 0 0 0 0 0 0 0 0 0 0 0.05 0"/>
<feBlend mode="normal" in2="BackgroundImageFix" result="effect1_dropShadow_7898_100155"/>
<feBlend mode="normal" in="SourceGraphic" in2="effect1_dropShadow_7898_100155" result="shape"/>
</filter>
<filter id="filter2_d_7898_100155" x="13.2397" y="6.95605" width="15.5677" height="24.9932" filterUnits="userSpaceOnUse" color-interpolation-filters="sRGB">
<feFlood flood-opacity="0" result="BackgroundImageFix"/>
<feColorMatrix in="SourceAlpha" type="matrix" values="0 0 0 0 0 0 0 0 0 0 0 0 0 0 0 0 0 0 127 0" result="hardAlpha"/>
<feOffset dy="0.5"/>
<feGaussianBlur stdDeviation="0.5"/>
<feComposite in2="hardAlpha" operator="out"/>
<feColorMatrix type="matrix" values="0 0 0 0 0 0 0 0 0 0 0 0 0 0 0 0 0 0 0.15 0"/>
<feBlend mode="normal" in2="BackgroundImageFix" result="effect1_dropShadow_7898_100155"/>
<feBlend mode="normal" in="SourceGraphic" in2="effect1_dropShadow_7898_100155" result="shape"/>
</filter>
<filter id="filter3_d_7898_100155" x="8.14197" y="12.4248" width="22.9341" height="17.6699" filterUnits="userSpaceOnUse" color-interpolation-filters="sRGB">
<feFlood flood-opacity="0" result="BackgroundImageFix"/>
<feColorMatrix in="SourceAlpha" type="matrix" values="0 0 0 0 0 0 0 0 0 0 0 0 0 0 0 0 0 0 127 0" result="hardAlpha"/>
<feOffset dy="0.5"/>
<feGaussianBlur stdDeviation="0.5"/>
<feComposite in2="hardAlpha" operator="out"/>
<feColorMatrix type="matrix" values="0 0 0 0 0 0 0 0 0 0 0 0 0 0 0 0 0 0 0.15 0"/>
<feBlend mode="normal" in2="BackgroundImageFix" result="effect1_dropShadow_7898_100155"/>
<feBlend mode="normal" in="SourceGraphic" in2="effect1_dropShadow_7898_100155" result="shape"/>
</filter>
</defs>
</svg>
