<svg xmlns="http://www.w3.org/2000/svg" viewBox="0 0 300 400" width="300" height="400" role="img" aria-label="I.E. Irodov">
  <defs>
    <linearGradient id="irodov-bg" x1="0%" y1="0%" x2="100%" y2="100%">
      <stop offset="0%" stop-color="#450a0a"/>
      <stop offset="35%" stop-color="#991b1b"/>
      <stop offset="70%" stop-color="#dc2626"/>
      <stop offset="100%" stop-color="#fca5a5"/>
    </linearGradient>
    <linearGradient id="irodov-shine" x1="0%" y1="0%" x2="100%" y2="100%">
      <stop offset="0%" stop-color="rgba(255,255,255,0.35)"/>
      <stop offset="100%" stop-color="rgba(255,255,255,0)"/>
    </linearGradient>
    <linearGradient id="irodov-gloss" x1="0%" y1="0%" x2="80%" y2="100%">
      <stop offset="0%" stop-color="rgba(255,255,255,0.22)"/>
      <stop offset="45%" stop-color="rgba(255,255,255,0.04)"/>
      <stop offset="100%" stop-color="rgba(255,255,255,0)"/>
    </linearGradient>
    <filter id="irodov-glow" x="-20%" y="-20%" width="140%" height="140%">
      <feGaussianBlur stdDeviation="1.8" result="b"/>
      <feMerge><feMergeNode in="b"/><feMergeNode in="SourceGraphic"/></feMerge>
    </filter>
    <filter id="irodov-emboss">
      <feDropShadow dx="0" dy="1.5" stdDeviation="1" flood-color="rgba(0,0,0,0.45)"/>
    </filter>
  </defs>
  <rect width="300" height="400" fill="url(#irodov-bg)"/>
  <line x1="0" y1="0" x2="0" y2="400" stroke="rgba(255,255,255,0.06)" stroke-width="1"/>
    <line x1="28" y1="0" x2="28" y2="400" stroke="rgba(255,255,255,0.06)" stroke-width="1"/>
    <line x1="56" y1="0" x2="56" y2="400" stroke="rgba(255,255,255,0.06)" stroke-width="1"/>
    <line x1="84" y1="0" x2="84" y2="400" stroke="rgba(255,255,255,0.06)" stroke-width="1"/>
    <line x1="112" y1="0" x2="112" y2="400" stroke="rgba(255,255,255,0.06)" stroke-width="1"/>
    <line x1="140" y1="0" x2="140" y2="400" stroke="rgba(255,255,255,0.06)" stroke-width="1"/>
    <line x1="168" y1="0" x2="168" y2="400" stroke="rgba(255,255,255,0.06)" stroke-width="1"/>
    <line x1="196" y1="0" x2="196" y2="400" stroke="rgba(255,255,255,0.06)" stroke-width="1"/>
    <line x1="224" y1="0" x2="224" y2="400" stroke="rgba(255,255,255,0.06)" stroke-width="1"/>
    <line x1="252" y1="0" x2="252" y2="400" stroke="rgba(255,255,255,0.06)" stroke-width="1"/>
    <line x1="280" y1="0" x2="280" y2="400" stroke="rgba(255,255,255,0.06)" stroke-width="1"/>
    <line x1="308" y1="0" x2="308" y2="400" stroke="rgba(255,255,255,0.06)" stroke-width="1"/>
    <line x1="0" y1="0" x2="300" y2="0" stroke="rgba(255,255,255,0.06)" stroke-width="1"/>
    <line x1="0" y1="28" x2="300" y2="28" stroke="rgba(255,255,255,0.06)" stroke-width="1"/>
    <line x1="0" y1="56" x2="300" y2="56" stroke="rgba(255,255,255,0.06)" stroke-width="1"/>
    <line x1="0" y1="84" x2="300" y2="84" stroke="rgba(255,255,255,0.06)" stroke-width="1"/>
    <line x1="0" y1="112" x2="300" y2="112" stroke="rgba(255,255,255,0.06)" stroke-width="1"/>
    <line x1="0" y1="140" x2="300" y2="140" stroke="rgba(255,255,255,0.06)" stroke-width="1"/>
    <line x1="0" y1="168" x2="300" y2="168" stroke="rgba(255,255,255,0.06)" stroke-width="1"/>
    <line x1="0" y1="196" x2="300" y2="196" stroke="rgba(255,255,255,0.06)" stroke-width="1"/>
    <line x1="0" y1="224" x2="300" y2="224" stroke="rgba(255,255,255,0.06)" stroke-width="1"/>
    <line x1="0" y1="252" x2="300" y2="252" stroke="rgba(255,255,255,0.06)" stroke-width="1"/>
    <line x1="0" y1="280" x2="300" y2="280" stroke="rgba(255,255,255,0.06)" stroke-width="1"/>
    <line x1="0" y1="308" x2="300" y2="308" stroke="rgba(255,255,255,0.06)" stroke-width="1"/>
    <line x1="0" y1="336" x2="300" y2="336" stroke="rgba(255,255,255,0.06)" stroke-width="1"/>
    <line x1="0" y1="364" x2="300" y2="364" stroke="rgba(255,255,255,0.06)" stroke-width="1"/>
    <line x1="0" y1="392" x2="300" y2="392" stroke="rgba(255,255,255,0.06)" stroke-width="1"/>
  <text x="200" y="70" fill="rgba(255,255,255,0.14)" font-family="Georgia,serif" font-size="15" font-style="italic" filter="url(#irodov-glow)">∇·E</text>
    <text x="230" y="130" fill="rgba(255,255,255,0.14)" font-family="Georgia,serif" font-size="15" font-style="italic" filter="url(#irodov-glow)">ω² = k/m</text>
    <text x="180" y="200" fill="rgba(255,255,255,0.14)" font-family="Georgia,serif" font-size="15" font-style="italic" filter="url(#irodov-glow)">L = Iω</text>
  <rect x="0" y="0" width="22" height="400" fill="rgba(0,0,0,0.32)"/>
  <rect x="22" y="0" width="3" height="400" fill="rgba(255,255,255,0.08)"/>
  <rect x="296" y="0" width="4" height="400" fill="rgba(255,255,255,0.12)"/>
  <rect x="0" y="0" width="300" height="400" fill="url(#irodov-gloss)"/>
  <text x="32" y="34" fill="rgba(255,255,255,0.88)" font-family="Inter,Arial,sans-serif" font-size="9" font-weight="800" letter-spacing="2.2">QUANTREX ACADEMY</text>
  
  <text x="34" y="118" fill="rgba(0,0,0,0.35)" font-family="Literata,Georgia,serif" font-size="28" font-weight="700">I.E. Irodov</text>
    <text x="32" y="116" fill="#ffffff" font-family="Literata,Georgia,serif" font-size="28" font-weight="700">I.E. Irodov</text>
  <text x="32" y="162" fill="rgba(255,255,255,0.92)" font-family="Inter,Arial,sans-serif" font-size="13" font-weight="600" filter="url(#irodov-emboss)">General Physics</text>
  <rect x="32" y="174" width="108" height="24" rx="12" fill="rgba(255,255,255,0.18)" stroke="rgba(255,255,255,0.25)" stroke-width="0.5"/>
  <text x="46" y="191" fill="#fff" font-family="Inter,Arial,sans-serif" font-size="11" font-weight="700">Top Problems</text>
  <text x="32" y="232" fill="#fff" font-family="Inter,Arial,sans-serif" font-size="20" font-weight="800">Advanced Level</text>
  <text x="32" y="256" fill="rgba(255,255,255,0.82)" font-family="Inter,Arial,sans-serif" font-size="11" font-weight="600">Physics · JEE Advanced</text>
  <circle cx="248" cy="72" r="34" fill="rgba(255,255,255,0.1)" stroke="rgba(255,255,255,0.15)" stroke-width="1"/>
  <text x="248" y="82" text-anchor="middle" font-size="30" filter="url(#irodov-glow)">🔥</text>
  <rect x="0" y="372" width="300" height="28" fill="rgba(0,0,0,0.22)"/>
  <text x="32" y="390" fill="rgba(255,255,255,0.7)" font-family="Inter,Arial,sans-serif" font-size="9" font-weight="800" letter-spacing="1.8">DIGITAL EDITION</text>
  <text x="268" y="390" text-anchor="end" fill="rgba(255,255,255,0.55)" font-family="Inter,Arial,sans-serif" font-size="8" font-weight="700">QX</text>
</svg>
