<svg xmlns="http://www.w3.org/2000/svg" viewBox="0 0 300 400" width="300" height="400" role="img" aria-label="Top 100">
  <defs>
    <linearGradient id="top100numerical-bg" x1="0%" y1="0%" x2="100%" y2="100%">
      <stop offset="0%" stop-color="#065f46"/>
      <stop offset="35%" stop-color="#047857"/>
      <stop offset="70%" stop-color="#059669"/>
      <stop offset="100%" stop-color="#6ee7b7"/>
    </linearGradient>
    <linearGradient id="top100numerical-shine" x1="0%" y1="0%" x2="100%" y2="100%">
      <stop offset="0%" stop-color="rgba(255,255,255,0.35)"/>
      <stop offset="100%" stop-color="rgba(255,255,255,0)"/>
    </linearGradient>
    <linearGradient id="top100numerical-gloss" x1="0%" y1="0%" x2="80%" y2="100%">
      <stop offset="0%" stop-color="rgba(255,255,255,0.22)"/>
      <stop offset="45%" stop-color="rgba(255,255,255,0.04)"/>
      <stop offset="100%" stop-color="rgba(255,255,255,0)"/>
    </linearGradient>
    <filter id="top100numerical-glow" x="-20%" y="-20%" width="140%" height="140%">
      <feGaussianBlur stdDeviation="1.8" result="b"/>
      <feMerge><feMergeNode in="b"/><feMergeNode in="SourceGraphic"/></feMerge>
    </filter>
    <filter id="top100numerical-emboss">
      <feDropShadow dx="0" dy="1.5" stdDeviation="1" flood-color="rgba(0,0,0,0.45)"/>
    </filter>
  </defs>
  <rect width="300" height="400" fill="url(#top100numerical-bg)"/>
  <line x1="-200" y1="400" x2="0" y2="0" stroke="rgba(255,255,255,0.07)" stroke-width="1.5"/>
    <line x1="-176" y1="400" x2="24" y2="0" stroke="rgba(255,255,255,0.07)" stroke-width="1.5"/>
    <line x1="-152" y1="400" x2="48" y2="0" stroke="rgba(255,255,255,0.07)" stroke-width="1.5"/>
    <line x1="-128" y1="400" x2="72" y2="0" stroke="rgba(255,255,255,0.07)" stroke-width="1.5"/>
    <line x1="-104" y1="400" x2="96" y2="0" stroke="rgba(255,255,255,0.07)" stroke-width="1.5"/>
    <line x1="-80" y1="400" x2="120" y2="0" stroke="rgba(255,255,255,0.07)" stroke-width="1.5"/>
    <line x1="-56" y1="400" x2="144" y2="0" stroke="rgba(255,255,255,0.07)" stroke-width="1.5"/>
    <line x1="-32" y1="400" x2="168" y2="0" stroke="rgba(255,255,255,0.07)" stroke-width="1.5"/>
    <line x1="-8" y1="400" x2="192" y2="0" stroke="rgba(255,255,255,0.07)" stroke-width="1.5"/>
    <line x1="16" y1="400" x2="216" y2="0" stroke="rgba(255,255,255,0.07)" stroke-width="1.5"/>
    <line x1="40" y1="400" x2="240" y2="0" stroke="rgba(255,255,255,0.07)" stroke-width="1.5"/>
    <line x1="64" y1="400" x2="264" y2="0" stroke="rgba(255,255,255,0.07)" stroke-width="1.5"/>
    <line x1="88" y1="400" x2="288" y2="0" stroke="rgba(255,255,255,0.07)" stroke-width="1.5"/>
    <line x1="112" y1="400" x2="312" y2="0" stroke="rgba(255,255,255,0.07)" stroke-width="1.5"/>
    <line x1="136" y1="400" x2="336" y2="0" stroke="rgba(255,255,255,0.07)" stroke-width="1.5"/>
    <line x1="160" y1="400" x2="360" y2="0" stroke="rgba(255,255,255,0.07)" stroke-width="1.5"/>
    <line x1="184" y1="400" x2="384" y2="0" stroke="rgba(255,255,255,0.07)" stroke-width="1.5"/>
    <line x1="208" y1="400" x2="408" y2="0" stroke="rgba(255,255,255,0.07)" stroke-width="1.5"/>
    <line x1="232" y1="400" x2="432" y2="0" stroke="rgba(255,255,255,0.07)" stroke-width="1.5"/>
    <line x1="256" y1="400" x2="456" y2="0" stroke="rgba(255,255,255,0.07)" stroke-width="1.5"/>
    <line x1="280" y1="400" x2="480" y2="0" stroke="rgba(255,255,255,0.07)" stroke-width="1.5"/>
    <line x1="304" y1="400" x2="504" y2="0" stroke="rgba(255,255,255,0.07)" stroke-width="1.5"/>
    <line x1="328" y1="400" x2="528" y2="0" stroke="rgba(255,255,255,0.07)" stroke-width="1.5"/>
    <line x1="352" y1="400" x2="552" y2="0" stroke="rgba(255,255,255,0.07)" stroke-width="1.5"/>
    <line x1="376" y1="400" x2="576" y2="0" stroke="rgba(255,255,255,0.07)" stroke-width="1.5"/>
    <line x1="400" y1="400" x2="600" y2="0" stroke="rgba(255,255,255,0.07)" stroke-width="1.5"/>
    <line x1="424" y1="400" x2="624" y2="0" stroke="rgba(255,255,255,0.07)" stroke-width="1.5"/>
    <line x1="448" y1="400" x2="648" y2="0" stroke="rgba(255,255,255,0.07)" stroke-width="1.5"/>
    <line x1="472" y1="400" x2="672" y2="0" stroke="rgba(255,255,255,0.07)" stroke-width="1.5"/>
    <line x1="496" y1="400" x2="696" y2="0" stroke="rgba(255,255,255,0.07)" stroke-width="1.5"/>
  <text x="200" y="70" fill="rgba(255,255,255,0.14)" font-family="Georgia,serif" font-size="15" font-style="italic" filter="url(#top100numerical-glow)">0.00</text>
    <text x="230" y="130" fill="rgba(255,255,255,0.14)" font-family="Georgia,serif" font-size="15" font-style="italic" filter="url(#top100numerical-glow)">×10ⁿ</text>
    <text x="180" y="200" fill="rgba(255,255,255,0.14)" font-family="Georgia,serif" font-size="15" font-style="italic" filter="url(#top100numerical-glow)">√</text>
  <rect x="0" y="0" width="22" height="400" fill="rgba(0,0,0,0.32)"/>
  <rect x="22" y="0" width="3" height="400" fill="rgba(255,255,255,0.08)"/>
  <rect x="296" y="0" width="4" height="400" fill="rgba(255,255,255,0.12)"/>
  <rect x="0" y="0" width="300" height="400" fill="url(#top100numerical-gloss)"/>
  <text x="32" y="34" fill="rgba(255,255,255,0.88)" font-family="Inter,Arial,sans-serif" font-size="9" font-weight="800" letter-spacing="2.2">QUANTREX ACADEMY</text>
  
    <rect x="32" y="52" width="72" height="22" rx="11" fill="rgba(255,255,255,0.22)"/>
    <text x="44" y="67" fill="#fff" font-family="Inter,Arial,sans-serif" font-size="10" font-weight="800" letter-spacing="0.5">Numerical</text>
  <text x="34" y="118" fill="rgba(0,0,0,0.35)" font-family="Literata,Georgia,serif" font-size="28" font-weight="700">Top 100</text>
    <text x="32" y="116" fill="#ffffff" font-family="Literata,Georgia,serif" font-size="28" font-weight="700">Top 100</text>
  <text x="32" y="162" fill="rgba(255,255,255,0.92)" font-family="Inter,Arial,sans-serif" font-size="13" font-weight="600" filter="url(#top100numerical-emboss)">Numerical Qs</text>
  <rect x="32" y="174" width="108" height="24" rx="12" fill="rgba(255,255,255,0.18)" stroke="rgba(255,255,255,0.25)" stroke-width="0.5"/>
  <text x="46" y="191" fill="#fff" font-family="Inter,Arial,sans-serif" font-size="11" font-weight="700">2023 – 2020</text>
  <text x="32" y="232" fill="#fff" font-family="Inter,Arial,sans-serif" font-size="20" font-weight="800">Physics + Math</text>
  <text x="32" y="256" fill="rgba(255,255,255,0.82)" font-family="Inter,Arial,sans-serif" font-size="11" font-weight="600">Numerical · PYQ Bank</text>
  <circle cx="248" cy="72" r="34" fill="rgba(255,255,255,0.1)" stroke="rgba(255,255,255,0.15)" stroke-width="1"/>
  <text x="248" y="82" text-anchor="middle" font-size="30" filter="url(#top100numerical-glow)">🔢</text>
  <rect x="0" y="372" width="300" height="28" fill="rgba(0,0,0,0.22)"/>
  <text x="32" y="390" fill="rgba(255,255,255,0.7)" font-family="Inter,Arial,sans-serif" font-size="9" font-weight="800" letter-spacing="1.8">DIGITAL EDITION</text>
  <text x="268" y="390" text-anchor="end" fill="rgba(255,255,255,0.55)" font-family="Inter,Arial,sans-serif" font-size="8" font-weight="700">QX</text>
</svg>
